<?xml version="1.0" encoding="utf-8"?>
<!-- Generator: Adobe Illustrator 24.3.0, SVG Export Plug-In . SVG Version: 6.00 Build 0)  -->
<svg version="1.0" id="katman_1" xmlns="http://www.w3.org/2000/svg" xmlns:xlink="http://www.w3.org/1999/xlink" x="0px" y="0px"
	 viewBox="0 0 238.62 357.93" style="enable-background:new 0 0 238.62 357.93;" xml:space="preserve">
<style type="text/css">
	.st0{fill:#F15A22;}
</style>
<path class="st0" d="M96.94,0c-4.47,0-7.46,2.98-7.46,7.46v74.57c0,17.9-13.42,32.81-29.83,35.79V7.46C59.66,2.98,56.67,0,52.2,0
	s-7.46,2.98-7.46,7.46v110.36c-16.41-2.98-29.83-17.9-29.83-35.79V7.46C14.91,2.98,11.93,0,7.46,0S0,2.98,0,7.46v74.57
	c0,26.84,19.39,47.72,44.74,50.71v217.74c0,4.47,2.98,7.46,7.46,7.46s7.46-2.98,7.46-7.46V132.73
	c25.35-2.98,44.74-25.35,44.74-50.71V7.46C104.4,2.98,101.41,0,96.94,0z M186.42,0c-28.34,0-52.2,23.86-52.2,52.2v29.83
	c0,26.84,19.39,47.72,44.74,50.71v217.74c0,4.47,2.98,7.46,7.46,7.46c4.47,0,7.46-2.98,7.46-7.46V132.73
	c25.35-2.98,44.74-25.35,44.74-50.71V52.2C238.62,23.86,214.76,0,186.42,0z M223.71,82.03c0,20.88-16.41,37.28-37.28,37.28
	s-37.28-16.41-37.28-37.28V52.2c0-20.88,16.41-37.28,37.28-37.28s37.28,16.41,37.28,37.28V82.03z"/>
</svg>
